<svg xmlns="http://www.w3.org/2000/svg" xmlns:xlink="http://www.w3.org/1999/xlink" width="1690.58837890625" height="412.80029296875" viewBox="0 0 1690.58837890625 412.80029296875" fill="none">
<path d="M154.375 147.908L92.7795 147.908L67.8503 184.262L154.375 184.262L154.375 147.908Z"   fill="#000000" >
</path>
<path d="M212.508 147.904L285.217 147.904L285.217 184.304L212.508 184.304L212.508 308.209L176.153 329.677L176.153 147.904L212.508 147.904Z" fill-rule="evenodd"  fill="#000000" >
</path>
<path d="M352.319 139.04C352.319 117.787 340.981 98.1474 322.574 87.5206L205.905 20.1613C187.499 9.53448 164.821 9.53444 146.415 20.1612L29.7456 87.5207C11.3395 98.1475 0.000807762 117.787 0.000807762 139.04L0.000807762 189.881L33.0506 189.881L33.0506 139.04C33.0506 129.594 38.09 120.866 46.2705 116.143L162.94 48.7832C171.121 44.0602 181.199 44.0602 189.38 48.7833L306.049 116.143C314.23 120.866 319.269 129.594 319.269 139.04L319.269 189.881L352.319 189.881L352.319 139.04ZM352.319 222.93L319.269 222.93L319.269 273.759C319.269 283.205 314.23 291.933 306.049 296.656L189.38 364.016C181.199 368.739 171.121 368.739 162.94 364.016L46.2705 296.656C38.09 291.933 33.0506 283.205 33.0506 273.759L33.0506 222.93L0.000807762 222.93L0.000807762 273.759C0.000807762 295.012 11.3395 314.652 29.7456 325.278L146.415 392.638C164.821 403.265 187.499 403.264 205.905 392.638L322.574 325.278C340.981 314.652 352.319 295.012 352.319 273.759L352.319 222.93Z" fill-rule="evenodd"  fill="#000000" >
</path>
<g >
<text transform="translate(481.78857421875, 0)">
<tspan x="0" y="309.2762399999999" font-size="294.54879999999997" line-height="0"  fill="#000000"  font-family="ITFO; Poppins Medium; 4.004b8∞4.004∞Poppins∞Medium" letter-spacing="4.20784" >
Biturbo</tspan>
</text>
</g>
</svg>
