<svg xmlns="http://www.w3.org/2000/svg" xmlns:xlink="http://www.w3.org/1999/xlink" width="360" height="120" viewBox="0 0 360 120" fill="none">
<rect x="0" y="0" width="360" height="120"   fill="#FFFFFF" >
</rect>
<path d="M59.7092 51.0144L50.2473 51.0144L46.4178 56.599L59.7092 56.599L59.7092 51.0144Z"   fill="#000000" >
</path>
<path d="M68.6399 51.0142L79.8091 51.0142L79.8091 56.6057L68.6399 56.6057L68.6399 75.6394L63.0553 78.9373L63.0553 51.0142L68.6399 51.0142Z" fill-rule="evenodd"  fill="#000000" >
</path>
<path d="M90.1167 49.6526C90.1167 46.3877 88.3749 43.3709 85.5474 41.7384L67.6253 31.391C64.7978 29.7586 61.3143 29.7586 58.4868 31.391L40.5647 41.7384C37.7372 43.3709 35.9954 46.3877 35.9954 49.6526L35.9954 57.4621L41.0724 57.4621L41.0724 49.6526C41.0724 48.2015 41.8465 46.8607 43.1031 46.1352L61.0253 35.7878C62.2819 35.0623 63.8302 35.0623 65.0868 35.7878L83.009 46.1352C84.2656 46.8607 85.0397 48.2015 85.0397 49.6526L85.0397 57.4621L90.1167 57.4621L90.1167 49.6526ZM90.1167 62.539L85.0397 62.539L85.0397 70.3473C85.0397 71.7984 84.2656 73.1392 83.009 73.8647L65.0868 84.2121C63.8302 84.9377 62.2819 84.9377 61.0253 84.2121L43.1031 73.8647C41.8465 73.1392 41.0724 71.7984 41.0724 70.3473L41.0724 62.539L35.9954 62.539L35.9954 70.3473C35.9954 73.6122 37.7372 76.6291 40.5647 78.2615L58.4868 88.6089C61.3143 90.2413 64.7978 90.2413 67.6253 88.6089L85.5474 78.2615C88.3749 76.6291 90.1167 73.6122 90.1167 70.3473L90.1167 62.539Z" fill-rule="evenodd"  fill="#000000" >
</path>
<g >
<text transform="translate(114.1212158203125, 30)">
<tspan x="0" y="44.1" font-size="42" line-height="0"  fill="#000000"  font-family="ITFO; Poppins Medium; 4.004b8∞4.004∞Poppins∞Medium" letter-spacing="0.6" >
Bitturbo</tspan>
</text>
</g>
</svg>
