<svg xmlns="http://www.w3.org/2000/svg" viewBox="0 0 120 40" fill="none">
  <path fill="#FFF" d="M0 0h120v40H0z"/>
  <path d="M19.903 17.005H16.75l-1.276 1.861h4.43v-1.861Z" fill="#000"/>
  <path d="M22.88 17.005h3.723v1.864H22.88v6.344l-1.862 1.1v-9.308h1.862Z" fill-rule="evenodd" fill="#000"/>
  <path d="M30.039 16.55c0-1.088-.58-2.093-1.523-2.637l-5.974-3.45a3.046 3.046 0 0 0-3.046 0l-5.974 3.45a3.046 3.046 0 0 0-1.524 2.638v2.603h1.693v-2.603c0-.484.258-.93.677-1.173l5.974-3.449a1.354 1.354 0 0 1 1.354 0l5.974 3.45c.419.241.677.688.677 1.172v2.603h1.692v-2.603Zm0 4.296h-1.692v2.603c0 .484-.258.93-.677 1.173l-5.974 3.449a1.354 1.354 0 0 1-1.354 0l-5.974-3.45a1.354 1.354 0 0 1-.677-1.172v-2.603h-1.693v2.603c0 1.088.581 2.094 1.524 2.638l5.974 3.45a3.046 3.046 0 0 0 3.046 0l5.974-3.45a3.046 3.046 0 0 0 1.523-2.638v-2.603Z" fill-rule="evenodd" fill="#000"/>
  <text transform="translate(38.04 10)">
<tspan x="0" y="14.7" font-size="14" fill="#000" font-family="ITFO; Poppins Medium; 4.004b8∞4.004∞Poppins∞Medium" letter-spacing=".2">
Bitturbo</tspan>
</text>
</svg>
